<?xml version="1.0" encoding="UTF-8" standalone="no"?>
<svg width="20px" height="20px" viewBox="0 0 20 20" version="1.1" xmlns="http://www.w3.org/2000/svg" xmlns:xlink="http://www.w3.org/1999/xlink">
    <!-- Generator: sketchtool 3.6.1 (26313) - http://www.bohemiancoding.com/sketch -->
    <title>-g-account-circle</title>
    <desc>Created with sketchtool.</desc>
    <defs></defs>
    <g id="Page-1" stroke="none" stroke-width="1" fill="none" fill-rule="evenodd">
        <g id="nav_bar" transform="translate(-33.000000, -552.000000)" fill="#ff9307">
            <g id="-g-account-circle" transform="translate(33.000000, 552.000000)">
                <path d="M10,0 C4.5,0 0,4.5 0,10 C0,15.5 4.5,20 10,20 C15.5,20 20,15.5 20,10 C20,4.5 15.5,0 10,0 L10,0 Z M10,3 C11.7,3 13,4.3 13,6 C13,7.7 11.7,9 10,9 C8.3,9 7,7.7 7,6 C7,4.3 8.3,3 10,3 L10,3 Z M10,17.2 C7.5,17.2 5.3,15.9 4,14 C4,12 8,10.9 10,10.9 C12,10.9 16,12 16,14 C14.7,15.9 12.5,17.2 10,17.2 L10,17.2 Z" id="Shape"></path>
            </g>
        </g>
    </g>
</svg>