<?xml version="1.0" encoding="UTF-8" standalone="no"?>
<svg width="149px" height="156px" viewBox="0 0 149 156" version="1.1" xmlns="http://www.w3.org/2000/svg" xmlns:xlink="http://www.w3.org/1999/xlink">
    <!-- Generator: sketchtool 3.6.1 (26313) - http://www.bohemiancoding.com/sketch -->
    <title>Group 4</title>
    <desc>Created with sketchtool.</desc>
    <defs></defs>
    <g id="Social" stroke="none" stroke-width="1" fill="none" fill-rule="evenodd">
        <g id="Landing" transform="translate(-300.000000, -146.000000)" fill="#FF2500">
            <g id="Group-4" transform="translate(300.000000, 146.000000)">
                <path d="M0.735471301,138.593258 L0.735471301,0.559550562 L148.62873,0.559550562 L148.62873,138.593258 L0.735471301,138.593258 L0.735471301,138.593258 Z M30.4573814,116.344382 L33.258505,114.635393 C33.9950219,114.960674 34.805696,115.253933 35.6821005,115.520225 C36.5551342,115.788202 37.5545724,116.000562 38.6854713,116.16573 C39.8062578,116.324157 41.1191792,116.408427 42.6158084,116.411798 C44.8304151,116.384831 46.8849095,115.889326 48.7742353,114.923596 C50.6703028,113.95618 52.3253589,112.688764 53.7427747,111.112921 C55.1601904,109.538764 56.264123,107.823034 57.0545724,105.964045 C57.8433365,104.101685 58.2478309,102.262921 58.2579432,100.447753 C58.2512016,98.25 58.0607522,96.4601124 57.7068196,95.0679775 C57.3461455,93.6808989 56.8708646,92.5382022 56.2776061,91.641573 C55.6826623,90.6691011 54.9090668,89.738764 53.9618758,88.8640449 C53.0146848,87.9842697 51.9191792,87.2679775 50.6736735,86.7033708 C49.4315387,86.1455056 48.0680556,85.8573034 46.5798533,85.8353933 C44.855696,85.8202247 43.2124376,86.0595506 41.6416511,86.5550562 C40.0674938,87.047191 38.6618758,87.9050562 37.4146848,89.1185393 L37.5545724,81.3303371 C37.5714264,79.6348315 37.608505,77.9325843 37.6658084,76.2286517 C37.7264825,74.5280899 37.7888421,72.9505618 37.852887,71.4994382 C37.9203028,70.0567416 37.9792915,68.8634831 38.0247971,67.9280899 C38.0719882,66.9994382 38.0989544,66.4516854 38.1023252,66.2949438 C38.1090668,65.9460674 38.0568196,65.6629213 37.9506398,65.4539326 C37.8343477,65.2466292 37.6152466,65.138764 37.2815387,65.1303371 C36.9579432,65.1337079 36.614123,65.2280899 36.2635612,65.4117978 C35.9129994,65.597191 35.4579432,65.8466292 34.8916511,66.1567416 C33.9933365,66.5730337 32.9517634,67.0230337 31.7804151,67.5 C30.6107522,67.9803371 29.3938983,68.438764 28.1349095,68.8904494 C26.8776061,69.3370787 25.6742353,69.7247191 24.519741,70.0533708 C24.2231118,70.1578652 24.0174938,70.2691011 23.9129994,70.3921348 C23.8118758,70.5151685 23.7596286,70.6314607 23.769741,70.7359551 L23.769741,71.5567416 C23.7562578,71.6578652 23.8152466,71.747191 23.9315387,71.8280899 C24.0478309,71.9089888 24.2938983,72.0033708 24.6545724,72.1011236 L25.6135612,72.3775281 C26.3146848,72.5561798 26.8894039,72.8308989 27.3326623,73.1932584 C27.77255,73.5488764 28.1012016,74.1286517 28.3101904,74.9325843 C28.5174938,75.7331461 28.6186174,76.8859551 28.6186174,78.3876404 L28.6186174,103.855618 C28.6186174,105.144944 28.616932,106.432584 28.616932,107.715169 C28.6118758,108.994382 28.6034488,110.182584 28.5933365,111.284831 C28.5781679,112.387079 28.5579432,113.31573 28.5343477,114.077528 C28.5023252,114.83427 28.4618758,115.339888 28.4096286,115.591011 C28.3809769,115.762921 28.3809769,115.885955 28.4214264,115.966854 C28.4618758,116.052809 28.552887,116.108427 28.6860331,116.138764 L29.6416511,116.479213 C29.7747971,116.514607 29.902887,116.529775 30.0242353,116.512921 C30.1489544,116.501124 30.2938983,116.440449 30.4573814,116.344382 L30.4573814,116.344382 Z M66.3023252,116.344382 L69.1017634,114.635393 C69.8416511,114.960674 70.6506398,115.253933 71.5270443,115.520225 C72.400078,115.788202 73.3978309,116.000562 74.5304151,116.16573 C75.6512016,116.324157 76.9658084,116.408427 78.455696,116.411798 C80.6736735,116.384831 82.7298533,115.889326 84.6208646,114.923596 C86.5152466,113.95618 88.1703028,112.688764 89.5860331,111.112921 C91.0051342,109.538764 92.1090668,107.823034 92.9012016,105.964045 C93.6899657,104.101685 94.0927747,102.262921 94.1045724,100.447753 C94.0927747,98.25 93.905696,96.4601124 93.5517634,95.0679775 C93.1894039,93.6808989 92.7158084,92.5382022 92.1242353,91.641573 C91.5259207,90.6691011 90.755696,89.738764 89.808505,88.8640449 C88.861314,87.9842697 87.764123,87.2679775 86.5186174,86.7033708 C85.2781679,86.1455056 83.911314,85.8573034 82.4231118,85.8353933 C80.7023252,85.8202247 79.055696,86.0595506 77.4882803,86.5550562 C75.914123,87.047191 74.5068196,87.9050562 73.261314,89.1185393 L73.3978309,81.3303371 C73.4180556,79.6348315 73.4551342,77.9325843 73.5124376,76.2286517 C73.569741,74.5280899 73.6337859,72.9505618 73.6978309,71.4994382 C73.7652466,70.0567416 73.8259207,68.8634831 73.869741,67.9280899 C73.916932,66.9994382 73.9438983,66.4516854 73.9472691,66.2949438 C73.9540106,65.9460674 73.9034488,65.6629213 73.7955837,65.4539326 C73.6792915,65.2466292 73.458505,65.138764 73.1231118,65.1303371 C72.802887,65.1337079 72.4590668,65.2280899 72.1101904,65.4117978 C71.7596286,65.597191 71.3045724,65.8466292 70.7365949,66.1567416 C69.8382803,66.5730337 68.7967073,67.0230337 67.6270443,67.5 C66.455696,67.9803371 65.2405275,68.438764 63.9798533,68.8904494 C62.72255,69.3370787 61.5174938,69.7247191 60.3663702,70.0533708 C60.0680556,70.1578652 59.8624376,70.2691011 59.7579432,70.3921348 C59.6568196,70.5151685 59.6045724,70.6314607 59.6180556,70.7359551 L59.6180556,71.5567416 C59.6012016,71.6578652 59.6568196,71.747191 59.7764825,71.8280899 C59.8927747,71.9089888 60.1337859,72.0033708 60.5012016,72.1011236 L61.458505,72.3775281 C62.1596286,72.5561798 62.7343477,72.8308989 63.1776061,73.1932584 C63.6174938,73.5488764 63.9461455,74.1286517 64.1534488,74.9325843 C64.364123,75.7331461 64.4635612,76.8859551 64.4635612,78.3876404 L64.4635612,103.855618 C64.4635612,105.144944 64.4601904,106.432584 64.4601904,107.715169 C64.4551342,108.994382 64.4450219,110.182584 64.4382803,111.284831 C64.4231118,112.387079 64.4045724,113.31573 64.3776061,114.077528 C64.3489544,114.83427 64.3068196,115.339888 64.2562578,115.591011 C64.2208646,115.762921 64.2208646,115.885955 64.2663702,115.966854 C64.3068196,116.052809 64.3978309,116.108427 64.5309769,116.138764 L65.4865949,116.479213 C65.619741,116.514607 65.7461455,116.529775 65.8691792,116.512921 C65.9922129,116.501124 66.1354713,116.440449 66.3023252,116.344382 L66.3023252,116.344382 Z M100.591651,115.56573 C101.774797,115.508427 103.573112,115.474719 105.978168,115.467978 C108.199516,115.474719 109.846145,115.508427 110.904572,115.56573 C111.959629,115.621348 112.593336,115.653371 112.804011,115.660112 C112.97255,115.660112 113.097269,115.609551 113.171426,115.508427 C113.245584,115.403933 113.282662,115.252247 113.279292,115.046629 L113.279292,113.748876 C113.286033,113.509551 113.242213,113.33764 113.14446,113.226404 C113.048393,113.12191 112.86637,113.062921 112.601763,113.066292 L111.713561,113.066292 C111.396707,113.051124 111.138842,112.826966 110.93828,112.398876 C110.732662,111.974157 110.628168,111.443258 110.624797,110.814607 L110.754572,96.8207865 C110.762999,95.4185393 110.889404,94.2707865 111.135471,93.3758427 C111.376483,92.4842697 111.708505,91.8808989 112.124797,91.5707865 C112.787157,91.0668539 113.383786,90.7095506 113.914685,90.4988764 C114.442213,90.3 115.003449,90.1988764 115.603449,90.205618 C116.173112,90.1870787 116.720865,90.2544944 117.248393,90.4078652 C117.775921,90.5595506 118.338842,90.9033708 118.945584,91.4342697 C119.636595,92.0747191 120.091651,92.8533708 120.298954,93.7786517 C120.511314,94.7039326 120.604011,95.8078652 120.585471,97.0988764 L120.585471,104.4 C120.585471,105.958989 120.551763,107.31236 120.480977,108.461798 C120.413561,109.609551 120.309067,110.622472 120.170865,111.497191 C120.091651,112.100562 119.928168,112.513483 119.685471,112.741011 C119.44446,112.968539 119.193336,113.07809 118.945584,113.066292 L118.190527,113.066292 C117.858505,113.059551 117.624235,113.101685 117.492775,113.194382 C117.362999,113.282022 117.298954,113.445506 117.307381,113.681461 L117.307381,114.908427 C117.304011,115.181461 117.34446,115.375281 117.427044,115.489888 C117.509629,115.609551 117.649516,115.665169 117.851763,115.660112 C118.079292,115.653371 118.768617,115.621348 119.924797,115.56573 C121.080977,115.508427 122.781539,115.474719 125.019741,115.467978 C126.833224,115.467978 128.304572,115.486517 129.430415,115.516854 C130.564685,115.547191 131.414123,115.579213 131.992213,115.609551 C132.566932,115.643258 132.930977,115.658427 133.077606,115.660112 C133.283224,115.660112 133.424797,115.594382 133.507381,115.462921 C133.58828,115.333146 133.62873,115.151124 133.625359,114.908427 L133.625359,113.681461 C133.633786,113.474157 133.58491,113.320787 133.480415,113.217978 C133.380977,113.118539 133.173674,113.066292 132.873674,113.066292 L131.029853,113.066292 C130.814123,113.074719 130.576483,113.022472 130.318617,112.899438 C130.057381,112.783146 129.833224,112.552247 129.646145,112.205056 C129.464123,111.862921 129.378168,111.350562 129.393336,110.674719 C129.438842,109.870787 129.480977,109.00618 129.519741,108.075843 C129.565247,107.152247 129.597269,106.230337 129.625921,105.313483 C129.646145,104.394944 129.66637,103.545506 129.66637,102.763483 L129.66637,95.5280899 C129.681539,94.405618 129.627606,93.4280899 129.504572,92.5853933 C129.38491,91.7426966 129.103449,90.9455056 128.663561,90.1870787 C128.221988,89.4337079 127.532662,88.6179775 126.592213,87.7483146 C125.690527,86.9511236 124.627044,86.4286517 123.408505,86.1792135 C122.18828,85.9280899 120.905696,85.8168539 119.559067,85.8353933 C118.448393,85.838764 117.479292,85.9550562 116.650078,86.1792135 C115.824235,86.4067416 115.038842,86.7235955 114.305696,87.1331461 C113.650078,87.4786517 113.033224,87.8646067 112.463561,88.2842697 C111.892213,88.7073034 111.413561,89.1438202 111.030977,89.5904494 L110.486595,89.5904494 L109.733224,86.661236 C109.662438,86.4134831 109.536033,86.2162921 109.357381,86.0662921 C109.182101,85.9213483 108.986595,85.8421348 108.774235,85.8353933 C108.504572,85.8421348 108.245022,85.8977528 107.992213,85.9988764 C107.737718,86.1 107.476483,86.2095506 107.208505,86.3123596 L98.4663702,90.2696629 C98.2910893,90.3404494 98.1461455,90.4280899 98.0315387,90.5376404 C97.9152466,90.6505618 97.8545724,90.7853933 97.852887,90.955618 L97.852887,91.5707865 C97.8444601,91.7039326 97.8747971,91.8404494 97.9371567,91.9702247 C97.9961455,92.1 98.1309769,92.2162921 98.3298533,92.3207865 L98.9450219,92.5938202 C99.7422129,92.9595506 100.39446,93.4567416 100.898393,94.0853933 C101.40064,94.7140449 101.658505,95.5348315 101.673674,96.552809 L101.673674,111.701124 C101.663561,112.082022 101.557381,112.373596 101.346707,112.570787 C101.137718,112.767978 100.886595,112.899438 100.591651,112.968539 C100.296707,113.035955 100.027044,113.069663 99.764123,113.066292 L98.7394039,113.066292 C98.4714264,113.066292 98.2877185,113.118539 98.1916511,113.217978 C98.0938983,113.320787 98.0517634,113.474157 98.0517634,113.681461 L98.0517634,115.046629 C98.0517634,115.252247 98.0905275,115.403933 98.1680556,115.508427 C98.2438983,115.609551 98.3652466,115.660112 98.5337859,115.660112 C98.7208646,115.653371 99.4068196,115.621348 100.591651,115.56573 L100.591651,115.56573 Z M39.9562578,113.014045 C39.3242353,112.491573 38.7747971,111.780337 38.3045724,110.885393 C38.0163702,110.305618 37.8124376,109.602809 37.7012016,108.768539 C37.5798533,107.93764 37.5158084,106.891011 37.5023252,105.626966 C37.4837859,104.361236 37.4804151,102.795506 37.4837859,100.924719 L37.4837859,91.9853933 C38.1798533,91.5404494 38.9079432,91.2134831 39.6579432,91.0044944 C40.4079432,90.7921348 41.0922129,90.6842697 41.72255,90.6876404 C42.9360331,90.6691011 44.0955837,91.0365169 45.1995162,91.8016854 C46.3135612,92.5601124 47.2219882,93.8191011 47.9365949,95.5803371 C48.6461455,97.341573 49.016932,99.711236 49.0405275,102.696067 C49.055696,103.589326 49.0658084,104.415169 49.0776061,105.175281 C49.0877185,105.935393 49.016932,106.71236 48.8686174,107.516292 C48.7186174,108.318539 48.4135612,109.237079 47.9467073,110.270225 C47.5034488,111.214045 46.9674938,111.94382 46.3405275,112.461236 C45.7101904,112.975281 45.0394039,113.33427 44.3382803,113.536517 C43.6287297,113.728652 42.9427747,113.821348 42.2719882,113.819663 C41.358505,113.804494 40.5865949,113.536517 39.9562578,113.014045 L39.9562578,113.014045 Z M75.8012016,113.014045 C75.1658084,112.491573 74.6180556,111.780337 74.1495162,110.885393 C73.8579432,110.305618 73.655696,109.602809 73.5410893,108.768539 C73.4247971,107.93764 73.3624376,106.891011 73.3472691,105.626966 C73.3270443,104.361236 73.3253589,102.795506 73.3270443,100.924719 L73.3270443,91.9853933 C74.0264825,91.5404494 74.752887,91.2134831 75.502887,91.0044944 C76.252887,90.7921348 76.9388421,90.6842697 77.5691792,90.6876404 C78.7792915,90.6691011 79.9388421,91.0365169 81.0444601,91.8016854 C82.1568196,92.5601124 83.0652466,93.8191011 83.7798533,95.5803371 C84.4910893,97.341573 84.8635612,99.711236 84.8854713,102.696067 C84.8989544,103.589326 84.9124376,104.415169 84.9208646,105.175281 C84.9343477,105.935393 84.8635612,106.71236 84.7152466,107.516292 C84.5635612,108.318539 84.258505,109.237079 83.7933365,110.270225 C83.3483926,111.214045 82.8124376,111.94382 82.1854713,112.461236 C81.550078,112.975281 80.8826623,113.33427 80.1798533,113.536517 C79.4753589,113.728652 78.7877185,113.821348 78.116932,113.819663 C77.2034488,113.804494 76.4315387,113.536517 75.8012016,113.014045 L75.8012016,113.014045 Z M86.1950219,66.9792135 C87.4995162,65.6713483 87.4995162,63.552809 86.1950219,62.25 C84.8854713,60.938764 82.766932,60.938764 81.4573814,62.25 C80.152887,63.552809 80.152887,65.6713483 81.4573814,66.9792135 C82.766932,68.2853933 84.8854713,68.2853933 86.1950219,66.9792135 L86.1950219,66.9792135 Z M100.067494,65.2466292 C101.371988,63.9370787 101.371988,61.8202247 100.067494,60.5106742 C98.7596286,59.2061798 96.6444601,59.2061798 95.3332241,60.5106742 C94.0287297,61.8202247 94.0287297,63.9370787 95.3332241,65.2466292 C96.6444601,66.552809 98.7596286,66.552809 100.067494,65.2466292 L100.067494,65.2466292 Z M71.019741,59.6039326 C72.7995162,57.8224719 72.7995162,54.9320225 71.019741,53.1505618 C69.2349095,51.3674157 66.3444601,51.3674157 64.561314,53.1505618 C62.7815387,54.9320225 62.7815387,57.8224719 64.561314,59.6039326 C66.3444601,61.3820225 69.2349095,61.3820225 71.019741,59.6039326 L71.019741,59.6039326 Z M109.05064,56.8904494 C110.050078,55.8910112 110.050078,54.2679775 109.05064,53.2634831 C108.047831,52.2657303 106.424797,52.2657303 105.421988,53.2634831 C104.425921,54.2679775 104.425921,55.8910112 105.421988,56.8904494 C106.424797,57.8882022 108.047831,57.8882022 109.05064,56.8904494 L109.05064,56.8904494 Z M62.7107522,46.097191 C64.9354713,43.8741573 64.9354713,40.2674157 62.7107522,38.0460674 C60.4860331,35.8196629 56.8792915,35.8196629 54.6562578,38.0460674 C52.4332241,40.2674157 52.4332241,43.8741573 54.6562578,46.097191 C56.8792915,48.3235955 60.4860331,48.3235955 62.7107522,46.097191 L62.7107522,46.097191 Z M61.8478309,30.4904494 C64.0691792,28.2674157 64.0691792,24.6623596 61.8478309,22.4410112 C59.6231118,20.2129213 56.0180556,20.2129213 53.7916511,22.4410112 C51.566932,24.6623596 51.566932,28.2674157 53.7916511,30.4904494 C56.0180556,32.7168539 59.6231118,32.7168539 61.8478309,30.4904494 L61.8478309,30.4904494 Z" id="Fill-7"></path>
                <path d="M72.8349095,155.844944 L46.3371567,136.634831 L68.8607522,137.297191 L72.8349095,155.844944 L72.8349095,155.844944 Z" id="Fill-9"></path>
            </g>
        </g>
    </g>
</svg>