<?xml version="1.0" encoding="UTF-8" standalone="no"?>
<svg width="20px" height="16px" viewBox="0 0 20 16" version="1.1" xmlns="http://www.w3.org/2000/svg" xmlns:xlink="http://www.w3.org/1999/xlink">
    <!-- Generator: sketchtool 3.6.1 (26313) - http://www.bohemiancoding.com/sketch -->
    <title>-g-contact_icon</title>
    <desc>Created with sketchtool.</desc>
    <defs></defs>
    <g id="Page-1" stroke="none" stroke-width="1" fill="none" fill-rule="evenodd">
        <g id="nav_bar" transform="translate(-33.000000, -359.000000)" fill="#ff9307">
            <g id="-g-contact_icon" transform="translate(33.000000, 359.000000)">
                <path d="M18,2 L10,2 L8,0 L2,0 C0.9,0 0,0.9 0,2 L0,14 C0,15.1 0.9,16 2,16 L18,16 C19.1,16 20,15.1 20,14 L20,4 C20,2.9 19.1,2 18,2 L18,2 Z M13,5 C14.1,5 15,5.9 15,7 C15,8.1 14.1,9 13,9 C11.9,9 11,8.1 11,7 C11,5.9 11.9,5 13,5 L13,5 Z M17,13 L9,13 L9,12 C9,10.7 11.7,10 13,10 C14.3,10 17,10.7 17,12 L17,13 L17,13 Z" id="Shape"></path>
            </g>
        </g>
    </g>
</svg>