<?xml version="1.0" encoding="UTF-8" standalone="no"?>
<svg width="10px" height="8px" viewBox="0 0 10 8" version="1.1" xmlns="http://www.w3.org/2000/svg" xmlns:xlink="http://www.w3.org/1999/xlink">
    <!-- Generator: sketchtool 3.6.1 (26313) - http://www.bohemiancoding.com/sketch -->
    <title>-g-credit-card</title>
    <desc>Created with sketchtool.</desc>
    <defs></defs>
    <g id="Page-1" stroke="none" stroke-width="1" fill="none" fill-rule="evenodd">
        <g id="nav_bar" transform="translate(-68.000000, -602.000000)" fill="#000000">
            <g id="-g-credit-card" transform="translate(68.000000, 602.000000)">
                <path d="M9,0 L1,0 C0.45,0 0,0.45 0,1 L0,7 C0,7.55 0.45,8 1,8 L9,8 C9.55,8 10,7.55 10,7 L10,1 C10,0.45 9.55,0 9,0 L9,0 Z M9,7 L1,7 L1,4 L9,4 L9,7 L9,7 Z M9,2 L1,2 L1,1 L9,1 L9,2 L9,2 Z" id="Shape"></path>
            </g>
        </g>
    </g>
</svg>