<?xml version="1.0" encoding="UTF-8" standalone="no"?>
<svg width="10px" height="10px" viewBox="0 0 10 10" version="1.1" xmlns="http://www.w3.org/2000/svg" xmlns:xlink="http://www.w3.org/1999/xlink">
    <!-- Generator: sketchtool 3.6.1 (26313) - http://www.bohemiancoding.com/sketch -->
    <title>-g-help</title>
    <desc>Created with sketchtool.</desc>
    <defs></defs>
    <g id="Page-1" stroke="none" stroke-width="1" fill="none" fill-rule="evenodd">
        <g id="nav_bar" transform="translate(-68.000000, -834.000000)" fill="#000000">
            <g id="-g-help" transform="translate(68.000000, 834.000000)">
                <path d="M5,0 C2.25,0 0,2.25 0,5 C0,7.75 2.25,10 5,10 C7.75,10 10,7.75 10,5 C10,2.25 7.75,0 5,0 L5,0 Z M5.5,8.5 L4.5,8.5 L4.5,7.5 L5.5,7.5 L5.5,8.5 L5.5,8.5 Z M6.55,4.65 L6.1,5.1 C5.7,5.45 5.5,5.75 5.5,6.5 L4.5,6.5 L4.5,6.25 C4.5,5.7 4.7,5.2 5.1,4.85 L5.7,4.2 C5.9,4.05 6,3.8 6,3.5 C6,2.95 5.55,2.5 5,2.5 C4.45,2.5 4,2.95 4,3.5 L3,3.5 C3,2.4 3.9,1.5 5,1.5 C6.1,1.5 7,2.4 7,3.5 C7,3.95 6.8,4.35 6.55,4.65 L6.55,4.65 Z" id="Shape"></path>
            </g>
        </g>
    </g>
</svg>