<?xml version="1.0" encoding="UTF-8" standalone="no"?>
<svg width="10px" height="10px" viewBox="0 0 10 10" version="1.1" xmlns="http://www.w3.org/2000/svg" xmlns:xlink="http://www.w3.org/1999/xlink">
    <!-- Generator: sketchtool 3.6.1 (26313) - http://www.bohemiancoding.com/sketch -->
    <title>-g-naira_symb1</title>
    <desc>Created with sketchtool.</desc>
    <defs></defs>
    <g id="Page-1" stroke="none" stroke-width="1" fill="none" fill-rule="evenodd">
        <g id="nav_bar" transform="translate(-68.000000, -799.000000)" fill="#000000">
            <g id="-g-naira_symb1" transform="translate(68.000000, 799.000000)">
                <path d="M5.02086036,5.43238178 L4.19472513,4.16782007 L3.64554343,4.16782007 L3.64554343,5.43238178 L5.02086036,5.43238178 Z M5.37491832,5.97433679 L6.55511151,7.78085352 L7.32120515,7.78085352 L7.32120515,5.97433679 L8.17963486,5.97433679 L8.45061237,5.97433679 L8.45061237,5.43238178 L8.17963486,5.43238178 L7.32120515,5.43238178 L7.32120515,4.16782007 L8.17963486,4.16782007 L8.45061237,4.16782007 L8.45061237,3.62586505 L8.17963486,3.62586505 L7.32120515,3.62586505 L7.32120515,2.00141134 L6.5630503,2.00141134 L6.5630503,3.62586505 L4.70496977,3.62586505 L3.64554343,2.00141134 L2.87944979,2.00141134 L2.87944979,3.62586505 L2.01846203,3.62586505 L1.74748452,3.62586505 L1.74748452,4.16782007 L2.01846203,4.16782007 L2.87944979,4.16782007 L2.87944979,5.43238178 L2.01846203,5.43238178 L1.74748452,5.43238178 L1.74748452,5.97433679 L2.01846203,5.97433679 L2.87944979,5.97433679 L2.87944979,7.78085352 L3.64554343,7.78085352 L3.64554343,5.97433679 L5.37491832,5.97433679 Z M5.88313285,5.43238178 L5.05841869,4.16782007 L6.5630503,4.16782007 L6.5630503,5.43238178 L5.88313285,5.43238178 Z M6.23658177,5.97433679 L6.5630503,6.47492187 L6.5630503,5.97433679 L6.23658177,5.97433679 Z M3.84066717,3.62586505 L3.64554343,3.32718997 L3.64554343,3.62586505 L3.84066717,3.62586505 Z M5,10 C7.76142375,10 10,7.76142375 10,5 C10,2.23857625 7.76142375,0 5,0 C2.23857625,0 0,2.23857625 0,5 C0,7.76142375 2.23857625,10 5,10 Z" id="Oval-94"></path>
            </g>
        </g>
    </g>
</svg>