<?xml version="1.0" encoding="UTF-8" standalone="no"?>
<svg width="10px" height="10px" viewBox="0 0 10 10" version="1.1" xmlns="http://www.w3.org/2000/svg" xmlns:xlink="http://www.w3.org/1999/xlink">
    <!-- Generator: sketchtool 3.6.1 (26313) - http://www.bohemiancoding.com/sketch -->
    <title>-g-notifications-on</title>
    <desc>Created with sketchtool.</desc>
    <defs></defs>
    <g id="Page-1" stroke="none" stroke-width="1" fill="none" fill-rule="evenodd">
        <g id="nav_bar" transform="translate(-68.000000, -317.000000)" fill="#000000">
            <g id="-g-notifications-on" transform="translate(68.000000, 317.000000)">
                <path d="M2.66666667,0.761904762 L2,0.0952380952 C0.857142857,0.952380952 0.0952380952,2.28571429 0,3.80952381 L0.952380952,3.80952381 C1.04761905,2.52380952 1.66666667,1.42857143 2.66666667,0.761904762 L2.66666667,0.761904762 Z M9.04761905,3.80952381 L10,3.80952381 C9.9047619,2.28571429 9.19047619,0.952380952 8.04761905,0.0952380952 L7.38095238,0.761904762 C8.33333333,1.42857143 8.95238095,2.52380952 9.04761905,3.80952381 L9.04761905,3.80952381 Z M8.0952381,4.04761905 C8.0952381,2.57142857 7.0952381,1.38095238 5.71428571,1.04761905 L5.71428571,0.714285714 C5.71428571,0.333333333 5.38095238,0 5,0 C4.61904762,0 4.28571429,0.333333333 4.28571429,0.714285714 L4.28571429,1.04761905 C2.9047619,1.38095238 1.9047619,2.57142857 1.9047619,4.04761905 L1.9047619,6.66666667 L0.952380952,7.61904762 L0.952380952,8.0952381 L9.04761905,8.0952381 L9.04761905,7.61904762 L8.0952381,6.66666667 L8.0952381,4.04761905 L8.0952381,4.04761905 Z M5,9.52380952 L5.19047619,9.52380952 C5.52380952,9.47619048 5.76190476,9.23809524 5.85714286,8.95238095 C5.9047619,8.85714286 5.95238095,8.71428571 5.95238095,8.57142857 L4.04761905,8.57142857 C4.04761905,9.0952381 4.47619048,9.52380952 5,9.52380952 L5,9.52380952 Z" id="Shape"></path>
            </g>
        </g>
    </g>
</svg>