<?xml version="1.0" encoding="UTF-8" standalone="no"?>
<svg width="10px" height="7px" viewBox="0 0 10 7" version="1.1" xmlns="http://www.w3.org/2000/svg" xmlns:xlink="http://www.w3.org/1999/xlink">
    <!-- Generator: sketchtool 3.6.1 (26313) - http://www.bohemiancoding.com/sketch -->
    <title>-g-people</title>
    <desc>Created with sketchtool.</desc>
    <defs></defs>
    <g id="Page-1" stroke="none" stroke-width="1" fill="none" fill-rule="evenodd">
        <g id="nav_bar" transform="translate(-68.000000, -408.000000)" fill="#000000">
            <g id="-g-people" transform="translate(68.000000, 408.000000)">
                <path d="M6.81818182,2.72727273 C7.59090909,2.72727273 8.18181818,2.13636364 8.18181818,1.36363636 C8.18181818,0.590909091 7.59090909,0 6.81818182,0 C6.04545455,0 5.45454545,0.590909091 5.45454545,1.36363636 C5.45454545,2.13636364 6.04545455,2.72727273 6.81818182,2.72727273 L6.81818182,2.72727273 Z M3.18181818,2.72727273 C3.95454545,2.72727273 4.54545455,2.13636364 4.54545455,1.36363636 C4.54545455,0.590909091 3.95454545,0 3.18181818,0 C2.40909091,0 1.81818182,0.590909091 1.81818182,1.36363636 C1.81818182,2.13636364 2.40909091,2.72727273 3.18181818,2.72727273 L3.18181818,2.72727273 Z M3.18181818,3.63636364 C2.13636364,3.63636364 0,4.18181818 0,5.22727273 L0,6.36363636 L6.36363636,6.36363636 L6.36363636,5.22727273 C6.36363636,4.18181818 4.22727273,3.63636364 3.18181818,3.63636364 L3.18181818,3.63636364 Z M6.81818182,3.63636364 C6.68181818,3.63636364 6.54545455,3.63636364 6.36363636,3.68181818 C6.90909091,4.04545455 7.27272727,4.59090909 7.27272727,5.22727273 L7.27272727,6.36363636 L10,6.36363636 L10,5.22727273 C10,4.18181818 7.86363636,3.63636364 6.81818182,3.63636364 L6.81818182,3.63636364 Z" id="Shape"></path>
            </g>
        </g>
    </g>
</svg>