<?xml version="1.0" encoding="UTF-8" standalone="no"?>
<svg width="10px" height="10px" viewBox="0 0 10 10" version="1.1" xmlns="http://www.w3.org/2000/svg" xmlns:xlink="http://www.w3.org/1999/xlink">
    <!-- Generator: sketchtool 3.6.1 (26313) - http://www.bohemiancoding.com/sketch -->
    <title>-g-settings</title>
    <desc>Created with sketchtool.</desc>
    <defs></defs>
    <g id="Page-1" stroke="none" stroke-width="1" fill="none" fill-rule="evenodd">
        <g id="nav_bar" transform="translate(-68.000000, -671.000000)" fill="#000000">
            <g id="-g-settings" transform="translate(68.000000, 671.111111)">
                <path d="M8.28571429,5.23809524 C8.28571429,5.0952381 8.33333333,4.95238095 8.33333333,4.76190476 C8.33333333,4.57142857 8.33333333,4.42857143 8.28571429,4.28571429 L9.28571429,3.47619048 C9.38095238,3.38095238 9.38095238,3.28571429 9.33333333,3.19047619 L8.38095238,1.52380952 C8.33333333,1.47619048 8.23809524,1.42857143 8.0952381,1.47619048 L6.9047619,1.95238095 C6.66666667,1.76190476 6.38095238,1.61904762 6.0952381,1.47619048 L5.9047619,0.238095238 C5.95238095,0.0952380952 5.80952381,0 5.71428571,0 L3.80952381,0 C3.71428571,0 3.57142857,0.0952380952 3.57142857,0.19047619 L3.38095238,1.47619048 C3.0952381,1.57142857 2.85714286,1.76190476 2.57142857,1.95238095 L1.42857143,1.47619048 C1.28571429,1.42857143 1.19047619,1.47619048 1.0952381,1.57142857 L0.142857143,3.23809524 C0.0952380952,3.28571429 0.142857143,3.42857143 0.238095238,3.52380952 L1.23809524,4.28571429 C1.23809524,4.42857143 1.19047619,4.57142857 1.19047619,4.76190476 C1.19047619,4.95238095 1.19047619,5.0952381 1.23809524,5.23809524 L0.238095238,6.04761905 C0.142857143,6.14285714 0.142857143,6.23809524 0.19047619,6.33333333 L1.14285714,8 C1.19047619,8.04761905 1.28571429,8.0952381 1.42857143,8.04761905 L2.61904762,7.57142857 C2.85714286,7.76190476 3.14285714,7.9047619 3.42857143,8.04761905 L3.61904762,9.28571429 C3.61904762,9.38095238 3.71428571,9.47619048 3.85714286,9.47619048 L5.76190476,9.47619048 C5.85714286,9.47619048 6,9.38095238 6,9.28571429 L6.19047619,8.04761905 C6.47619048,7.9047619 6.76190476,7.76190476 7,7.57142857 L8.19047619,8.04761905 C8.28571429,8.0952381 8.42857143,8.04761905 8.47619048,7.95238095 L9.42857143,6.28571429 C9.47619048,6.19047619 9.47619048,6.04761905 9.38095238,6 L8.28571429,5.23809524 L8.28571429,5.23809524 Z M4.76190476,6.42857143 C3.85714286,6.42857143 3.0952381,5.66666667 3.0952381,4.76190476 C3.0952381,3.85714286 3.85714286,3.0952381 4.76190476,3.0952381 C5.66666667,3.0952381 6.42857143,3.85714286 6.42857143,4.76190476 C6.42857143,5.66666667 5.66666667,6.42857143 4.76190476,6.42857143 L4.76190476,6.42857143 Z" id="Shape"></path>
            </g>
        </g>
    </g>
</svg>