<?xml version="1.0" encoding="UTF-8" standalone="no"?>
<svg width="10px" height="12px" viewBox="0 0 10 12" version="1.1" xmlns="http://www.w3.org/2000/svg" xmlns:xlink="http://www.w3.org/1999/xlink">
    <!-- Generator: sketchtool 3.6.1 (26313) - http://www.bohemiancoding.com/sketch -->
    <title>-g-share-alt</title>
    <desc>Created with sketchtool.</desc>
    <defs></defs>
    <g id="Page-1" stroke="none" stroke-width="1" fill="none" fill-rule="evenodd">
        <g id="nav_bar" transform="translate(-68.000000, -636.000000)" fill="#000000">
            <g id="-g-share-alt" transform="translate(68.000000, 636.000000)">
                <path d="M8.33333333,3.88888889 C7.88888889,3.88888889 7.5,4.05555556 7.22222222,4.33333333 L3.27777778,2.05555556 C3.33333333,1.94444444 3.33333333,1.77777778 3.33333333,1.66666667 C3.33333333,0.722222222 2.61111111,0 1.66666667,0 C0.722222222,0 0,0.722222222 0,1.66666667 C0,2.61111111 0.722222222,3.33333333 1.66666667,3.33333333 C2.11111111,3.33333333 2.5,3.16666667 2.77777778,2.88888889 L6.72222222,5.16666667 C6.66666667,5.27777778 6.66666667,5.44444444 6.66666667,5.55555556 C6.66666667,5.66666667 6.66666667,5.83333333 6.72222222,5.94444444 L2.77777778,8.27777778 C2.5,8 2.11111111,7.83333333 1.66666667,7.83333333 C0.777777778,7.83333333 0.0555555556,8.55555556 0.0555555556,9.44444444 C0.0555555556,10.3333333 0.777777778,11.0555556 1.66666667,11.0555556 C2.55555556,11.0555556 3.27777778,10.3333333 3.27777778,9.44444444 C3.27777778,9.33333333 3.27777778,9.22222222 3.22222222,9.05555556 L7.16666667,6.72222222 C7.44444444,7 7.83333333,7.16666667 8.27777778,7.16666667 C9.22222222,7.16666667 9.94444444,6.44444444 9.94444444,5.5 C9.94444444,4.55555556 9.27777778,3.88888889 8.33333333,3.88888889 L8.33333333,3.88888889 Z" id="Shape"></path>
            </g>
        </g>
    </g>
</svg>