<?xml version="1.0" encoding="UTF-8" standalone="no"?>
<svg width="10px" height="10px" viewBox="0 0 10 10" version="1.1" xmlns="http://www.w3.org/2000/svg" xmlns:xlink="http://www.w3.org/1999/xlink">
    <!-- Generator: sketchtool 3.6.1 (26313) - http://www.bohemiancoding.com/sketch -->
    <title>-g-textsms</title>
    <desc>Created with sketchtool.</desc>
    <defs></defs>
    <g id="Page-1" stroke="none" stroke-width="1" fill="none" fill-rule="evenodd">
        <g id="nav_bar" transform="translate(-68.000000, -247.000000)" fill="#000000">
            <g id="-g-textsms" transform="translate(68.000000, 247.000000)">
                <path d="M9,0 L1,0 C0.45,0 0,0.45 0,1 L0,10 L2,8 L9,8 C9.55,8 10,7.55 10,7 L10,1 C10,0.45 9.55,0 9,0 L9,0 Z M3.5,4.5 L2.5,4.5 L2.5,3.5 L3.5,3.5 L3.5,4.5 L3.5,4.5 Z M5.5,4.5 L4.5,4.5 L4.5,3.5 L5.5,3.5 L5.5,4.5 L5.5,4.5 Z M7.5,4.5 L6.5,4.5 L6.5,3.5 L7.5,3.5 L7.5,4.5 L7.5,4.5 Z" id="Shape"></path>
            </g>
        </g>
    </g>
</svg>